g ExportedStar.obj
v 0.5943315 -0.4391688 0
v 0.6142068 -0.4388856 0
v 0.5880922 -0.001247467 0
v 0.607936 0.001247467 0
v 0.4947327 0.3600761 0
v 0.5114928 0.3709894 0
v 0.1955478 0.6033168 0
v 0.202593 0.6220348 0
v -0.2027177 0.6225831 0
v -0.2081183 0.6418402 0
v -0.5451061 0.3956009 0
v -0.5608559 0.4079274 0
v -0.6902193 -0.0003046662 0
v -0.71021 0.0003045438 0
v -0.5697861 -0.4142871 0
v -0.5862592 -0.4256288 0
v -0.22122 -0.6815002 0
v -0.2277842 -0.7003922 0
v 0.2244316 -0.6902469 0
v 0.2303278 -0.709358 0
v 0.5925919 -0.4304242 0
v 0.6086583 -0.4423352 0
v 0.7361835 4.038622E-05 0
v 0.7561833 -4.012529E-05 0
v 0.5960696 0.4330468 0
v 0.6122279 0.4448327 0
v 0.2269405 0.6982064 0
v 0.2329773 0.7172736 0
v -0.2250369 0.6930116 0
v -0.2314624 0.7119513 0
v -0.5826494 0.423544 0
v -0.5990404 0.4350042 0
v -0.7094107 0.0002399717 0
v -0.729405 -0.000240006 0
v -0.5626726 -0.4084455 0
v -0.5785034 -0.4206679 0
v -0.2103128 -0.6461903 0
v -0.2158519 -0.665408 0
v 0.2041191 -0.6294609 0
v 0.2110275 -0.6482298 0
v 0.5191218 -0.3777023 0
v 0.5357987 -0.3887422 0
v 0.6204959 -0.0005004103 0
v 0.6404708 0.0005008513 0
v 0.4826395 0.3499728 0
v 0.4981435 0.3626071 0
v 0.1772082 0.5434648 0
v 0.1822457 0.56282 0
v -0.1680589 0.5193374 0
v -0.1754638 0.537916 0
v -0.4194795 0.3056459 0
v -0.4364522 0.3162255 0
v -0.4913042 0.0008131594 0
v -0.511238 -0.0008128806 0
v -0.3725201 -0.2695918 0
v -0.3876334 -0.2826909 0
v -0.1344661 -0.4109018 0
v -0.138892 -0.4304059 0
v 0.1230626 -0.382092 0
v 0.1311752 -0.4003727 0
v 0.2989367 -0.2185017 0
v 0.3162729 -0.2284744 0
v 0.3422408 -0.001150916 0
v 0.3621078 0.001150949 0
v 0.2525382 0.1819482 0
v 0.2671372 0.1956183 0
v 0.08894187 0.269378 0
v 0.09250465 0.2890581 0
v -0.07689923 0.2416372 0
v -0.08592463 0.259485 0
v -0.1804444 0.13306 0
v -0.1982836 0.1421024 0
v -0.1985683 0.001733647 0
v -0.2182655 -0.001733405 0
v -0.1395843 -0.09908499 0
v -0.15326 -0.1136787 0
v -0.04759622 -0.1397741 0
v -0.04969695 -0.1596634 0
v 0.0358296 -0.1176161 0
v 0.04616538 -0.1347384 0
v 0.0831881 -0.05976798 0
v 0.09776896 -0.0717049 0

vn 0 0 -1
vn 0 0 -1
vn 0 0 -1
vn 0 0 -1
vn 0 0 -1
vn 0 0 -1
vn 0 0 -1
vn 0 0 -1
vn 0 0 -1
vn 0 0 -1
vn 0 0 -1
vn 0 0 -1
vn 0 0 -1
vn 0 0 -1
vn 0 0 -1
vn 0 0 -0.9999999
vn 0 0 -1
vn 0 0 -1
vn 0 0 -1
vn 0 0 -1
vn 0 0 -1
vn 0 0 -1
vn 0 0 -1
vn 0 0 -1
vn 0 0 -1
vn 0 0 -0.9999999
vn 0 0 -1
vn 0 0 -0.9999999
vn 0 0 -1
vn 0 0 -1
vn 0 0 -1
vn 0 0 -1
vn 0 0 -1
vn 0 0 -1
vn 0 0 -1
vn 0 0 -1
vn 0 0 -0.9999999
vn 0 0 -1
vn 0 0 -1
vn 0 0 -1
vn 0 0 -1
vn 0 0 -1
vn 0 0 -1
vn 0 0 -0.9999999
vn 0 0 -1
vn 0 0 -0.9999999
vn 0 0 -1
vn 0 0 -1
vn 0 0 -0.9999999
vn 0 0 -1
vn 0 0 -1
vn 0 0 -1
vn 0 0 -1
vn 0 0 -0.9999999
vn 0 0 -1
vn 0 0 -1
vn 0 0 -1
vn 0 0 -1
vn 0 0 -1
vn 0 0 -1
vn 0 0 -0.9999999
vn 0 0 -1
vn 0 0 -1
vn 0 0 -1
vn 0 0 -1
vn 0 0 -1
vn 0 0 -1
vn 0 0 -1
vn 0 0 -1
vn 0 0 -1
vn 0 0 -1
vn 0 0 -1
vn 0 0 -1
vn 0 0 -1
vn 0 0 -1
vn 0 0 -1
vn 0 0 -1
vn 0 0 -0.9999999
vn 0 0 -1
vn 0 0 -1
vn 0 0 -0.9999999
vn 0 0 -1

vt 0 0
vt 0 1
vt 1 0
vt 1 1
vt 0 0
vt 0 1
vt 1 0
vt 1 1
vt 0 0
vt 0 1
vt 1 0
vt 1 1
vt 0 0
vt 0 1
vt 1 0
vt 1 1
vt 0 0
vt 0 1
vt 1 0
vt 1 1
vt 0 0
vt 0 1
vt 1 0
vt 1 1
vt 0 0
vt 0 1
vt 1 0
vt 1 1
vt 0 0
vt 0 1
vt 1 0
vt 1 1
vt 0 0
vt 0 1
vt 1 0
vt 1 1
vt 0 0
vt 0 1
vt 1 0
vt 1 1
vt 0 0
vt 0 1
vt 1 0
vt 1 1
vt 0 0
vt 0 1
vt 1 0
vt 1 1
vt 0 0
vt 0 1
vt 1 0
vt 1 1
vt 0 0
vt 0 1
vt 1 0
vt 1 1
vt 0 0
vt 0 1
vt 1 0
vt 1 1
vt 0 0
vt 0 1
vt 1 0
vt 1 1
vt 0 0
vt 0 1
vt 1 0
vt 1 1
vt 0 0
vt 0 1
vt 1 0
vt 1 1
vt 0 0
vt 0 1
vt 1 0
vt 1 1
vt 0 0
vt 0 1
vt 1 0
vt 1 1
vt 0 0
vt 0 1

usemtl YellowStar
usemap YellowStar
f 2/2/2 1/1/1 3/3/3
f 3/3/3 4/4/4 2/2/2
f 4/4/4 3/3/3 5/5/5
f 5/5/5 6/6/6 4/4/4
f 6/6/6 5/5/5 7/7/7
f 7/7/7 8/8/8 6/6/6
f 8/8/8 7/7/7 9/9/9
f 9/9/9 10/10/10 8/8/8
f 10/10/10 9/9/9 11/11/11
f 11/11/11 12/12/12 10/10/10
f 12/12/12 11/11/11 13/13/13
f 13/13/13 14/14/14 12/12/12
f 14/14/14 13/13/13 15/15/15
f 15/15/15 16/16/16 14/14/14
f 16/16/16 15/15/15 17/17/17
f 17/17/17 18/18/18 16/16/16
f 18/18/18 17/17/17 19/19/19
f 19/19/19 20/20/20 18/18/18
f 20/20/20 19/19/19 21/21/21
f 21/21/21 22/22/22 20/20/20
f 22/22/22 21/21/21 23/23/23
f 23/23/23 24/24/24 22/22/22
f 24/24/24 23/23/23 25/25/25
f 25/25/25 26/26/26 24/24/24
f 26/26/26 25/25/25 27/27/27
f 27/27/27 28/28/28 26/26/26
f 28/28/28 27/27/27 29/29/29
f 29/29/29 30/30/30 28/28/28
f 30/30/30 29/29/29 31/31/31
f 31/31/31 32/32/32 30/30/30
f 32/32/32 31/31/31 33/33/33
f 33/33/33 34/34/34 32/32/32
f 34/34/34 33/33/33 35/35/35
f 35/35/35 36/36/36 34/34/34
f 36/36/36 35/35/35 37/37/37
f 37/37/37 38/38/38 36/36/36
f 38/38/38 37/37/37 39/39/39
f 39/39/39 40/40/40 38/38/38
f 40/40/40 39/39/39 41/41/41
f 41/41/41 42/42/42 40/40/40
f 42/42/42 41/41/41 43/43/43
f 43/43/43 44/44/44 42/42/42
f 44/44/44 43/43/43 45/45/45
f 45/45/45 46/46/46 44/44/44
f 46/46/46 45/45/45 47/47/47
f 47/47/47 48/48/48 46/46/46
f 48/48/48 47/47/47 49/49/49
f 49/49/49 50/50/50 48/48/48
f 50/50/50 49/49/49 51/51/51
f 51/51/51 52/52/52 50/50/50
f 52/52/52 51/51/51 53/53/53
f 53/53/53 54/54/54 52/52/52
f 54/54/54 53/53/53 55/55/55
f 55/55/55 56/56/56 54/54/54
f 56/56/56 55/55/55 57/57/57
f 57/57/57 58/58/58 56/56/56
f 58/58/58 57/57/57 59/59/59
f 59/59/59 60/60/60 58/58/58
f 60/60/60 59/59/59 61/61/61
f 61/61/61 62/62/62 60/60/60
f 62/62/62 61/61/61 63/63/63
f 63/63/63 64/64/64 62/62/62
f 64/64/64 63/63/63 65/65/65
f 65/65/65 66/66/66 64/64/64
f 66/66/66 65/65/65 67/67/67
f 67/67/67 68/68/68 66/66/66
f 68/68/68 67/67/67 69/69/69
f 69/69/69 70/70/70 68/68/68
f 70/70/70 69/69/69 71/71/71
f 71/71/71 72/72/72 70/70/70
f 72/72/72 71/71/71 73/73/73
f 73/73/73 74/74/74 72/72/72
f 74/74/74 73/73/73 75/75/75
f 75/75/75 76/76/76 74/74/74
f 76/76/76 75/75/75 77/77/77
f 77/77/77 78/78/78 76/76/76
f 78/78/78 77/77/77 79/79/79
f 79/79/79 80/80/80 78/78/78
f 80/80/80 79/79/79 81/81/81
f 81/81/81 82/82/82 80/80/80
